<svg xmlns="http://www.w3.org/2000/svg" xmlns:xlink="http://www.w3.org/1999/xlink" contentStyleType="text/css" height="2036px" preserveAspectRatio="none" style="width:724px;height:2036px;background:#FEFEFE;" version="1.1" viewBox="0 0 724 2036" width="724px" zoomAndPan="magnify"><defs/><g><rect fill="#FEFEFE" height="2036" style="stroke:none;stroke-width:1.0;" width="724" x="0" y="0"/><text fill="#000000" font-family="sans-serif" font-size="14" font-weight="bold" lengthAdjust="spacing" textLength="228.1699" x="246.7151" y="33.5352">&#25307;&#25237;&#26631;&#39033;&#30446;&#20027;&#27969;&#31243; - &#35282;&#33394;&#32844;&#36131;&#27891;&#36947;&#22270;</text><rect fill="none" height="16.4883" style="stroke:none;stroke-width:1.0;" width="691.6001" x="15" y="48.9414"/><ellipse cx="73" cy="80.4297" fill="#222222" rx="10" ry="10" style="stroke:#222222;stroke-width:1.0;"/><rect fill="#F1F1F1" height="34.1328" rx="12.5" ry="12.5" style="stroke:#666666;stroke-width:0.5;" width="92" x="27" y="110.4297"/><text fill="#000000" font-family="sans-serif" font-size="12" lengthAdjust="spacing" textLength="72" x="37" y="132.0313">&#21019;&#24314;&#37319;&#36141;&#38656;&#27714;</text><rect fill="#F1F1F1" height="34.1328" rx="12.5" ry="12.5" style="stroke:#666666;stroke-width:0.5;" width="68" x="39" y="164.5625"/><text fill="#000000" font-family="sans-serif" font-size="12" lengthAdjust="spacing" textLength="48" x="49" y="186.1641">&#25552;&#20132;&#31435;&#39033;</text><rect fill="#F1F1F1" height="34.1328" rx="12.5" ry="12.5" style="stroke:#666666;stroke-width:0.5;" width="92" x="27" y="218.6953"/><text fill="#000000" font-family="sans-serif" font-size="12" lengthAdjust="spacing" textLength="72" x="37" y="240.2969">&#30830;&#35748;&#25307;&#26631;&#25991;&#20214;</text><rect fill="#F1F1F1" height="34.1328" rx="12.5" ry="12.5" style="stroke:#666666;stroke-width:0.5;" width="80" x="33" y="272.8281"/><text fill="#000000" font-family="sans-serif" font-size="12" lengthAdjust="spacing" textLength="60" x="43" y="294.4297">&#30830;&#35748;&#20013;&#26631;&#20154;</text><rect fill="#F1F1F1" height="34.1328" rx="12.5" ry="12.5" style="stroke:#666666;stroke-width:0.5;" width="104" x="21" y="326.9609"/><text fill="#000000" font-family="sans-serif" font-size="12" lengthAdjust="spacing" textLength="84" x="31" y="348.5625">&#21457;&#36865;&#20013;&#26631;&#36890;&#30693;&#20070;</text><ellipse cx="73" cy="392.0938" fill="none" rx="11" ry="11" style="stroke:#222222;stroke-width:1.0;"/><ellipse cx="73" cy="392.0938" fill="#222222" rx="6" ry="6" style="stroke:#222222;stroke-width:1.0;"/><line style="stroke:#999999;stroke-width:1.5;" x1="15" x2="15" y1="48.9414" y2="2024.6797"/><rect fill="#F1F1F1" height="34.1328" rx="12.5" ry="12.5" style="stroke:#666666;stroke-width:0.5;" width="104" x="138.1465" y="413.0938"/><text fill="#000000" font-family="sans-serif" font-size="12" lengthAdjust="spacing" textLength="84" x="148.1465" y="434.6953">&#21463;&#22996;&#25176;&#25191;&#34892;&#25307;&#26631;</text><rect fill="#F1F1F1" height="34.1328" rx="12.5" ry="12.5" style="stroke:#666666;stroke-width:0.5;" width="92" x="144.1465" y="467.2266"/><text fill="#000000" font-family="sans-serif" font-size="12" lengthAdjust="spacing" textLength="72" x="154.1465" y="488.8281">&#32534;&#21046;&#25307;&#26631;&#25991;&#20214;</text><rect fill="#F1F1F1" height="34.1328" rx="12.5" ry="12.5" style="stroke:#666666;stroke-width:0.5;" width="110.293" x="135" y="521.3594"/><text fill="#000000" font-family="sans-serif" font-size="12" lengthAdjust="spacing" textLength="90.293" x="145" y="542.9609">&#21457;&#24067;&#20844;&#21578;/&#36992;&#35831;&#20070;</text><rect fill="#F1F1F1" height="34.1328" rx="12.5" ry="12.5" style="stroke:#666666;stroke-width:0.5;" width="68" x="156.1465" y="575.4922"/><text fill="#000000" font-family="sans-serif" font-size="12" lengthAdjust="spacing" textLength="48" x="166.1465" y="597.0938">&#32452;&#32455;&#24320;&#26631;</text><rect fill="#F1F1F1" height="34.1328" rx="12.5" ry="12.5" style="stroke:#666666;stroke-width:0.5;" width="68" x="156.1465" y="629.625"/><text fill="#000000" font-family="sans-serif" font-size="12" lengthAdjust="spacing" textLength="48" x="166.1465" y="651.2266">&#32452;&#32455;&#35780;&#26631;</text><rect fill="#F1F1F1" height="34.1328" rx="12.5" ry="12.5" style="stroke:#666666;stroke-width:0.5;" width="92" x="144.1465" y="683.7578"/><text fill="#000000" font-family="sans-serif" font-size="12" lengthAdjust="spacing" textLength="72" x="154.1465" y="705.3594">&#27719;&#24635;&#35780;&#26631;&#25253;&#21578;</text><ellipse cx="190.1465" cy="748.8906" fill="none" rx="11" ry="11" style="stroke:#222222;stroke-width:1.0;"/><ellipse cx="190.1465" cy="748.8906" fill="#222222" rx="6" ry="6" style="stroke:#222222;stroke-width:1.0;"/><line style="stroke:#999999;stroke-width:1.5;" x1="129" x2="129" y1="48.9414" y2="2024.6797"/><rect fill="#F1F1F1" height="34.1328" rx="12.5" ry="12.5" style="stroke:#666666;stroke-width:0.5;" width="98.293" x="258.1465" y="769.8906"/><text fill="#000000" font-family="sans-serif" font-size="12" lengthAdjust="spacing" textLength="78.293" x="268.1465" y="791.4922">&#26597;&#30475;&#20844;&#21578;/&#36992;&#35831;</text><rect fill="#F1F1F1" height="34.1328" rx="12.5" ry="12.5" style="stroke:#666666;stroke-width:0.5;" width="92" x="261.293" y="824.0234"/><text fill="#000000" font-family="sans-serif" font-size="12" lengthAdjust="spacing" textLength="72" x="271.293" y="845.625">&#19979;&#36733;&#25307;&#26631;&#25991;&#20214;</text><rect fill="#F1F1F1" height="34.1328" rx="12.5" ry="12.5" style="stroke:#666666;stroke-width:0.5;" width="68" x="273.293" y="878.1563"/><text fill="#000000" font-family="sans-serif" font-size="12" lengthAdjust="spacing" textLength="48" x="283.293" y="899.7578">&#22312;&#32447;&#25253;&#20215;</text><rect fill="#F1F1F1" height="34.1328" rx="12.5" ry="12.5" style="stroke:#666666;stroke-width:0.5;" width="92" x="261.293" y="932.2891"/><text fill="#000000" font-family="sans-serif" font-size="12" lengthAdjust="spacing" textLength="72" x="271.293" y="953.8906">&#19978;&#20256;&#25237;&#26631;&#25991;&#20214;</text><rect fill="#F1F1F1" height="34.1328" rx="12.5" ry="12.5" style="stroke:#666666;stroke-width:0.5;" width="104" x="255.293" y="986.4219"/><text fill="#000000" font-family="sans-serif" font-size="12" lengthAdjust="spacing" textLength="84" x="265.293" y="1008.0234">&#24320;&#26631;&#26102;&#35299;&#23494;&#25991;&#20214;</text><rect fill="#F1F1F1" height="34.1328" rx="12.5" ry="12.5" style="stroke:#666666;stroke-width:0.5;" width="92" x="261.293" y="1040.5547"/><text fill="#000000" font-family="sans-serif" font-size="12" lengthAdjust="spacing" textLength="72" x="271.293" y="1062.1563">&#26597;&#30475;&#20013;&#26631;&#32467;&#26524;</text><ellipse cx="307.293" cy="1105.6875" fill="none" rx="11" ry="11" style="stroke:#222222;stroke-width:1.0;"/><ellipse cx="307.293" cy="1105.6875" fill="#222222" rx="6" ry="6" style="stroke:#222222;stroke-width:1.0;"/><line style="stroke:#999999;stroke-width:1.5;" x1="249.293" x2="249.293" y1="48.9414" y2="2024.6797"/><rect fill="#F1F1F1" height="34.1328" rx="12.5" ry="12.5" style="stroke:#666666;stroke-width:0.5;" width="92" x="381.293" y="1126.6875"/><text fill="#000000" font-family="sans-serif" font-size="12" lengthAdjust="spacing" textLength="72" x="391.293" y="1148.2891">&#25509;&#25910;&#35780;&#26631;&#20219;&#21153;</text><rect fill="#F1F1F1" height="34.1328" rx="12.5" ry="12.5" style="stroke:#666666;stroke-width:0.5;" width="104" x="375.293" y="1180.8203"/><text fill="#000000" font-family="sans-serif" font-size="12" lengthAdjust="spacing" textLength="84" x="385.293" y="1202.4219">&#22238;&#36991;&#22768;&#26126;&#19982;&#31614;&#21040;</text><rect fill="#F1F1F1" height="34.1328" rx="12.5" ry="12.5" style="stroke:#666666;stroke-width:0.5;" width="68" x="393.293" y="1234.9531"/><text fill="#000000" font-family="sans-serif" font-size="12" lengthAdjust="spacing" textLength="48" x="403.293" y="1256.5547">&#25512;&#36873;&#32452;&#38271;</text><rect fill="#F1F1F1" height="34.1328" rx="12.5" ry="12.5" style="stroke:#666666;stroke-width:0.5;" width="68" x="393.293" y="1289.0859"/><text fill="#000000" font-family="sans-serif" font-size="12" lengthAdjust="spacing" textLength="48" x="403.293" y="1310.6875">&#26597;&#38405;&#36164;&#26009;</text><rect fill="#F1F1F1" height="34.1328" rx="12.5" ry="12.5" style="stroke:#666666;stroke-width:0.5;" width="68" x="393.293" y="1343.2188"/><text fill="#000000" font-family="sans-serif" font-size="12" lengthAdjust="spacing" textLength="48" x="403.293" y="1364.8203">&#22312;&#32447;&#35780;&#20998;</text><rect fill="#F1F1F1" height="34.1328" rx="12.5" ry="12.5" style="stroke:#666666;stroke-width:0.5;" width="68" x="393.293" y="1397.3516"/><text fill="#000000" font-family="sans-serif" font-size="12" lengthAdjust="spacing" textLength="48" x="403.293" y="1418.9531">&#30005;&#23376;&#31614;&#21517;</text><rect fill="#F1F1F1" height="34.1328" rx="12.5" ry="12.5" style="stroke:#666666;stroke-width:0.5;" width="116" x="369.293" y="1451.4844"/><text fill="#000000" font-family="sans-serif" font-size="12" lengthAdjust="spacing" textLength="96" x="379.293" y="1473.0859">&#32452;&#38271;&#29983;&#25104;&#35780;&#26631;&#25253;&#21578;</text><ellipse cx="427.293" cy="1516.6172" fill="none" rx="11" ry="11" style="stroke:#222222;stroke-width:1.0;"/><ellipse cx="427.293" cy="1516.6172" fill="#222222" rx="6" ry="6" style="stroke:#222222;stroke-width:1.0;"/><line style="stroke:#999999;stroke-width:1.5;" x1="363.293" x2="363.293" y1="48.9414" y2="2024.6797"/><rect fill="#F1F1F1" height="34.1328" rx="12.5" ry="12.5" style="stroke:#666666;stroke-width:0.5;" width="92" x="495.293" y="1537.6172"/><text fill="#000000" font-family="sans-serif" font-size="12" lengthAdjust="spacing" textLength="72" x="505.293" y="1559.2188">&#26597;&#30475;&#24320;&#26631;&#22330;&#27425;</text><rect fill="#F1F1F1" height="34.1328" rx="12.5" ry="12.5" style="stroke:#666666;stroke-width:0.5;" width="92" x="495.293" y="1591.75"/><text fill="#000000" font-family="sans-serif" font-size="12" lengthAdjust="spacing" textLength="72" x="505.293" y="1613.3516">&#30417;&#30563;&#24320;&#26631;&#36807;&#31243;</text><rect fill="#F1F1F1" height="34.1328" rx="12.5" ry="12.5" style="stroke:#666666;stroke-width:0.5;" width="92" x="495.293" y="1645.8828"/><text fill="#000000" font-family="sans-serif" font-size="12" lengthAdjust="spacing" textLength="72" x="505.293" y="1667.4844">&#26597;&#30475;&#35780;&#26631;&#36827;&#24230;</text><rect fill="#F1F1F1" height="34.1328" rx="12.5" ry="12.5" style="stroke:#666666;stroke-width:0.5;" width="68" x="507.293" y="1700.0156"/><text fill="#000000" font-family="sans-serif" font-size="12" lengthAdjust="spacing" textLength="48" x="517.293" y="1721.6172">&#35760;&#24405;&#24322;&#24120;</text><ellipse cx="541.293" cy="1765.1484" fill="none" rx="11" ry="11" style="stroke:#222222;stroke-width:1.0;"/><ellipse cx="541.293" cy="1765.1484" fill="#222222" rx="6" ry="6" style="stroke:#222222;stroke-width:1.0;"/><line style="stroke:#999999;stroke-width:1.5;" x1="489.293" x2="489.293" y1="48.9414" y2="2024.6797"/><rect fill="#F1F1F1" height="34.1328" rx="12.5" ry="12.5" style="stroke:#666666;stroke-width:0.5;" width="104" x="597.293" y="1786.1484"/><text fill="#000000" font-family="sans-serif" font-size="12" lengthAdjust="spacing" textLength="84" x="607.293" y="1807.75">&#20379;&#24212;&#21830;&#20934;&#20837;&#23457;&#26680;</text><rect fill="#F1F1F1" height="34.1328" rx="12.5" ry="12.5" style="stroke:#666666;stroke-width:0.5;" width="92" x="603.293" y="1840.2813"/><text fill="#000000" font-family="sans-serif" font-size="12" lengthAdjust="spacing" textLength="72" x="613.293" y="1861.8828">&#29992;&#25143;&#26435;&#38480;&#31649;&#29702;</text><rect fill="#F1F1F1" height="34.1328" rx="12.5" ry="12.5" style="stroke:#666666;stroke-width:0.5;" width="92" x="603.293" y="1894.4141"/><text fill="#000000" font-family="sans-serif" font-size="12" lengthAdjust="spacing" textLength="72" x="613.293" y="1916.0156">&#31995;&#32479;&#21442;&#25968;&#37197;&#32622;</text><rect fill="#F1F1F1" height="34.1328" rx="12.5" ry="12.5" style="stroke:#666666;stroke-width:0.5;" width="68" x="615.293" y="1948.5469"/><text fill="#000000" font-family="sans-serif" font-size="12" lengthAdjust="spacing" textLength="48" x="625.293" y="1970.1484">&#26085;&#24535;&#23457;&#35745;</text><ellipse cx="649.293" cy="2013.6797" fill="none" rx="11" ry="11" style="stroke:#222222;stroke-width:1.0;"/><ellipse cx="649.293" cy="2013.6797" fill="#222222" rx="6" ry="6" style="stroke:#222222;stroke-width:1.0;"/><line style="stroke:#999999;stroke-width:1.5;" x1="591.293" x2="591.293" y1="48.9414" y2="2024.6797"/><line style="stroke:#999999;stroke-width:1.5;" x1="705.293" x2="705.293" y1="48.9414" y2="2024.6797"/><line style="stroke:#666666;stroke-width:1.0;" x1="73" x2="73" y1="90.4297" y2="110.4297"/><polygon fill="#666666" points="69,100.4297,73,110.4297,77,100.4297,73,104.4297" style="stroke:#666666;stroke-width:1.0;"/><line style="stroke:#666666;stroke-width:1.0;" x1="73" x2="73" y1="144.5625" y2="164.5625"/><polygon fill="#666666" points="69,154.5625,73,164.5625,77,154.5625,73,158.5625" style="stroke:#666666;stroke-width:1.0;"/><line style="stroke:#666666;stroke-width:1.0;" x1="73" x2="73" y1="198.6953" y2="218.6953"/><polygon fill="#666666" points="69,208.6953,73,218.6953,77,208.6953,73,212.6953" style="stroke:#666666;stroke-width:1.0;"/><line style="stroke:#666666;stroke-width:1.0;" x1="73" x2="73" y1="252.8281" y2="272.8281"/><polygon fill="#666666" points="69,262.8281,73,272.8281,77,262.8281,73,266.8281" style="stroke:#666666;stroke-width:1.0;"/><line style="stroke:#666666;stroke-width:1.0;" x1="73" x2="73" y1="306.9609" y2="326.9609"/><polygon fill="#666666" points="69,316.9609,73,326.9609,77,316.9609,73,320.9609" style="stroke:#666666;stroke-width:1.0;"/><line style="stroke:#666666;stroke-width:1.0;" x1="73" x2="73" y1="361.0938" y2="381.0938"/><polygon fill="#666666" points="69,371.0938,73,381.0938,77,371.0938,73,375.0938" style="stroke:#666666;stroke-width:1.0;"/><line style="stroke:#666666;stroke-width:1.0;" x1="190.1465" x2="190.1465" y1="447.2266" y2="467.2266"/><polygon fill="#666666" points="186.1465,457.2266,190.1465,467.2266,194.1465,457.2266,190.1465,461.2266" style="stroke:#666666;stroke-width:1.0;"/><line style="stroke:#666666;stroke-width:1.0;" x1="190.1465" x2="190.1465" y1="501.3594" y2="521.3594"/><polygon fill="#666666" points="186.1465,511.3594,190.1465,521.3594,194.1465,511.3594,190.1465,515.3594" style="stroke:#666666;stroke-width:1.0;"/><line style="stroke:#666666;stroke-width:1.0;" x1="190.1465" x2="190.1465" y1="555.4922" y2="575.4922"/><polygon fill="#666666" points="186.1465,565.4922,190.1465,575.4922,194.1465,565.4922,190.1465,569.4922" style="stroke:#666666;stroke-width:1.0;"/><line style="stroke:#666666;stroke-width:1.0;" x1="190.1465" x2="190.1465" y1="609.625" y2="629.625"/><polygon fill="#666666" points="186.1465,619.625,190.1465,629.625,194.1465,619.625,190.1465,623.625" style="stroke:#666666;stroke-width:1.0;"/><line style="stroke:#666666;stroke-width:1.0;" x1="190.1465" x2="190.1465" y1="663.7578" y2="683.7578"/><polygon fill="#666666" points="186.1465,673.7578,190.1465,683.7578,194.1465,673.7578,190.1465,677.7578" style="stroke:#666666;stroke-width:1.0;"/><line style="stroke:#666666;stroke-width:1.0;" x1="190.1465" x2="190.1465" y1="717.8906" y2="737.8906"/><polygon fill="#666666" points="186.1465,727.8906,190.1465,737.8906,194.1465,727.8906,190.1465,731.8906" style="stroke:#666666;stroke-width:1.0;"/><line style="stroke:#666666;stroke-width:1.0;" x1="307.293" x2="307.293" y1="804.0234" y2="824.0234"/><polygon fill="#666666" points="303.293,814.0234,307.293,824.0234,311.293,814.0234,307.293,818.0234" style="stroke:#666666;stroke-width:1.0;"/><line style="stroke:#666666;stroke-width:1.0;" x1="307.293" x2="307.293" y1="858.1563" y2="878.1563"/><polygon fill="#666666" points="303.293,868.1563,307.293,878.1563,311.293,868.1563,307.293,872.1563" style="stroke:#666666;stroke-width:1.0;"/><line style="stroke:#666666;stroke-width:1.0;" x1="307.293" x2="307.293" y1="912.2891" y2="932.2891"/><polygon fill="#666666" points="303.293,922.2891,307.293,932.2891,311.293,922.2891,307.293,926.2891" style="stroke:#666666;stroke-width:1.0;"/><line style="stroke:#666666;stroke-width:1.0;" x1="307.293" x2="307.293" y1="966.4219" y2="986.4219"/><polygon fill="#666666" points="303.293,976.4219,307.293,986.4219,311.293,976.4219,307.293,980.4219" style="stroke:#666666;stroke-width:1.0;"/><line style="stroke:#666666;stroke-width:1.0;" x1="307.293" x2="307.293" y1="1020.5547" y2="1040.5547"/><polygon fill="#666666" points="303.293,1030.5547,307.293,1040.5547,311.293,1030.5547,307.293,1034.5547" style="stroke:#666666;stroke-width:1.0;"/><line style="stroke:#666666;stroke-width:1.0;" x1="307.293" x2="307.293" y1="1074.6875" y2="1094.6875"/><polygon fill="#666666" points="303.293,1084.6875,307.293,1094.6875,311.293,1084.6875,307.293,1088.6875" style="stroke:#666666;stroke-width:1.0;"/><line style="stroke:#666666;stroke-width:1.0;" x1="427.293" x2="427.293" y1="1160.8203" y2="1180.8203"/><polygon fill="#666666" points="423.293,1170.8203,427.293,1180.8203,431.293,1170.8203,427.293,1174.8203" style="stroke:#666666;stroke-width:1.0;"/><line style="stroke:#666666;stroke-width:1.0;" x1="427.293" x2="427.293" y1="1214.9531" y2="1234.9531"/><polygon fill="#666666" points="423.293,1224.9531,427.293,1234.9531,431.293,1224.9531,427.293,1228.9531" style="stroke:#666666;stroke-width:1.0;"/><line style="stroke:#666666;stroke-width:1.0;" x1="427.293" x2="427.293" y1="1269.0859" y2="1289.0859"/><polygon fill="#666666" points="423.293,1279.0859,427.293,1289.0859,431.293,1279.0859,427.293,1283.0859" style="stroke:#666666;stroke-width:1.0;"/><line style="stroke:#666666;stroke-width:1.0;" x1="427.293" x2="427.293" y1="1323.2188" y2="1343.2188"/><polygon fill="#666666" points="423.293,1333.2188,427.293,1343.2188,431.293,1333.2188,427.293,1337.2188" style="stroke:#666666;stroke-width:1.0;"/><line style="stroke:#666666;stroke-width:1.0;" x1="427.293" x2="427.293" y1="1377.3516" y2="1397.3516"/><polygon fill="#666666" points="423.293,1387.3516,427.293,1397.3516,431.293,1387.3516,427.293,1391.3516" style="stroke:#666666;stroke-width:1.0;"/><line style="stroke:#666666;stroke-width:1.0;" x1="427.293" x2="427.293" y1="1431.4844" y2="1451.4844"/><polygon fill="#666666" points="423.293,1441.4844,427.293,1451.4844,431.293,1441.4844,427.293,1445.4844" style="stroke:#666666;stroke-width:1.0;"/><line style="stroke:#666666;stroke-width:1.0;" x1="427.293" x2="427.293" y1="1485.6172" y2="1505.6172"/><polygon fill="#666666" points="423.293,1495.6172,427.293,1505.6172,431.293,1495.6172,427.293,1499.6172" style="stroke:#666666;stroke-width:1.0;"/><line style="stroke:#666666;stroke-width:1.0;" x1="541.293" x2="541.293" y1="1571.75" y2="1591.75"/><polygon fill="#666666" points="537.293,1581.75,541.293,1591.75,545.293,1581.75,541.293,1585.75" style="stroke:#666666;stroke-width:1.0;"/><line style="stroke:#666666;stroke-width:1.0;" x1="541.293" x2="541.293" y1="1625.8828" y2="1645.8828"/><polygon fill="#666666" points="537.293,1635.8828,541.293,1645.8828,545.293,1635.8828,541.293,1639.8828" style="stroke:#666666;stroke-width:1.0;"/><line style="stroke:#666666;stroke-width:1.0;" x1="541.293" x2="541.293" y1="1680.0156" y2="1700.0156"/><polygon fill="#666666" points="537.293,1690.0156,541.293,1700.0156,545.293,1690.0156,541.293,1694.0156" style="stroke:#666666;stroke-width:1.0;"/><line style="stroke:#666666;stroke-width:1.0;" x1="541.293" x2="541.293" y1="1734.1484" y2="1754.1484"/><polygon fill="#666666" points="537.293,1744.1484,541.293,1754.1484,545.293,1744.1484,541.293,1748.1484" style="stroke:#666666;stroke-width:1.0;"/><line style="stroke:#666666;stroke-width:1.0;" x1="649.293" x2="649.293" y1="1820.2813" y2="1840.2813"/><polygon fill="#666666" points="645.293,1830.2813,649.293,1840.2813,653.293,1830.2813,649.293,1834.2813" style="stroke:#666666;stroke-width:1.0;"/><line style="stroke:#666666;stroke-width:1.0;" x1="649.293" x2="649.293" y1="1874.4141" y2="1894.4141"/><polygon fill="#666666" points="645.293,1884.4141,649.293,1894.4141,653.293,1884.4141,649.293,1888.4141" style="stroke:#666666;stroke-width:1.0;"/><line style="stroke:#666666;stroke-width:1.0;" x1="649.293" x2="649.293" y1="1928.5469" y2="1948.5469"/><polygon fill="#666666" points="645.293,1938.5469,649.293,1948.5469,653.293,1938.5469,649.293,1942.5469" style="stroke:#666666;stroke-width:1.0;"/><line style="stroke:#666666;stroke-width:1.0;" x1="649.293" x2="649.293" y1="1982.6797" y2="2002.6797"/><polygon fill="#666666" points="645.293,1992.6797,649.293,2002.6797,653.293,1992.6797,649.293,1996.6797" style="stroke:#666666;stroke-width:1.0;"/><text fill="#000000" font-family="sans-serif" font-size="14" font-weight="bold" lengthAdjust="spacing" textLength="42" x="51" y="62.4766">&#25307;&#26631;&#20154;</text><text fill="#000000" font-family="sans-serif" font-size="14" font-weight="bold" lengthAdjust="spacing" textLength="56" x="161.1465" y="62.4766">&#25307;&#26631;&#20195;&#29702;</text><text fill="#000000" font-family="sans-serif" font-size="14" font-weight="bold" lengthAdjust="spacing" textLength="42" x="285.293" y="62.4766">&#25237;&#26631;&#20154;</text><text fill="#000000" font-family="sans-serif" font-size="14" font-weight="bold" lengthAdjust="spacing" textLength="56" x="398.293" y="62.4766">&#35780;&#26631;&#19987;&#23478;</text><text fill="#000000" font-family="sans-serif" font-size="14" font-weight="bold" lengthAdjust="spacing" textLength="56" x="512.293" y="62.4766">&#30417;&#30563;&#20154;&#21592;</text><text fill="#000000" font-family="sans-serif" font-size="14" font-weight="bold" lengthAdjust="spacing" textLength="42" x="627.293" y="62.4766">&#31649;&#29702;&#21592;</text><!--SRC=[RL9PJjj00FttAIpnNPMogIn20cfVe4ZzDjY0XR6HOxQMIWbBd8Kbb8Ib2IHHI44g62WGJ0paCfuP-nQTyKH9G54aI_FyjdbnQ5PMvmLTc6CdXCdPQLrRKCKnJT5qjeFdo8y9DHWpWYekwR9XI2ex9IWXgUMTA4q92uenBYqR8ueyhSv9gi5EueUajx2MT67-comQCsnNPsSBBamQyg9ihB0_69OTVLjaQ0ZdYP8kISF3R0VNpNVnNzgnX6cS5b0-yxrSVplAX2nY8yBXURwRwsp7aPRd9JtmuSUu7cwi7IUqW3cBSaYhUt6Z7DUsaZWdgm6bc-lbUmb5qt63-i1zVNqO6j5rRQa5-TcoIsX9dbC4LQAxj6hx-yaDnsL3aNXDDRxAtoNsKyyRo5XH97P2KqHioHW4Pc4o2nCPM33zuXFAMgxjm8S8kaYo7rZl_9SN_-T5jhpx4hoxyoFx8FlACAj4KZ3TQdML2Hc2RZ0389O5JjKtJU_-oi-5uUtQ83C0TrDkzGpzJM9dV4H5oxFEg1OUcAvJQO2kVKKDCG9sz_nmX29- -3VAbzsdFuCuI9jlHZibb8gk4l8XE4_3-16Cdtl5BVgMs3uVW5ZbNHPs1lOwsBm4UucF_bhOktuCh0UGiu4S4po7w-BWw5rlq2EyDM7OeKUOA6DniqqmN3340CoNKIxvnXsBNJlflRoyBvAxGDKQzd8ToacupmNgrUG4RU1XnJilWUje0wSnT1xaxCFJNACDhUZQ-y2ga48xPPYkr4770OaYiSsU-f4QADt0entNta5Nho1sGsntBlnm7D_SpzHeYd-qwJrim8FZHc5i1M9HCb3w0LobY3QrJVV2AfJEmrYgxKmekuTEIdWci7VKN2gu8CXLuIKfHZaKz6ec_W0RbwMUNYqBgkJVygmRy981psl0jfiHLX5_4TJVVSNCDCX4WHa5csLW5M713cfVmDWZF5dtZrEKJy0x1pbviBi6CpV-vZPwiKZkOHdK3h7GiuhrYFy0]--></g></svg>